<svg width="25" height="20" viewBox="0 0 25 20" fill="none" xmlns="http://www.w3.org/2000/svg">
<path d="M9.92542 14.5918C5.31837 14.5918 2.74384 16.1224 2.74384 20H0.0338143C0.0338143 14.5578 4.30211 12.2789 9.92542 12.2789V14.5918ZM9.92542 8.87755H-6.10352e-05V11.1905H9.92542V8.87755ZM9.92542 5.40816V7.72109C4.30211 7.72109 0.0338143 5.44218 0.0338143 0H2.74384C2.74384 3.87755 5.31837 5.40816 9.92542 5.40816ZM25 10.034C25 5.17007 22.4254 2.31292 17.0392 2.31292H9.92542V4.62585H16.0907C20.2913 4.62585 22.2561 5.85034 22.2561 10C22.2561 14.0816 20.3252 15.3741 16.0907 15.3741H9.92542V17.6871H17.2425C22.2899 17.6871 25 14.8639 25 10.034Z" fill="white"/>
</svg>
