<svg width="44" height="45" viewBox="0 0 44 45" fill="none" xmlns="http://www.w3.org/2000/svg">
<path d="M36.8386 26.5603V30.607H29.0967V26.5603C29.0967 25.4871 29.5045 24.4578 30.2305 23.6989C30.9564 22.94 31.941 22.5136 32.9676 22.5136C33.9943 22.5136 34.9789 22.94 35.7048 23.6989C36.4308 24.4578 36.8386 25.4871 36.8386 26.5603Z" stroke="black" stroke-width="4" stroke-linecap="round" stroke-linejoin="round"/>
<path d="M24.258 30.607H41.6773V42.7471H24.258V30.607Z" stroke="black" stroke-width="4" stroke-linecap="round" stroke-linejoin="round"/>
<path d="M30.0645 4.3035H35.8709C36.8975 4.3035 37.8821 4.72984 38.6081 5.48875C39.334 6.24765 39.7419 7.27694 39.7419 8.35019V14.4202" stroke="black" stroke-width="4" stroke-linecap="round" stroke-linejoin="round"/>
<path d="M14.5806 40.7237H8.77411C7.74746 40.7237 6.76286 40.2974 6.03692 39.5385C5.31097 38.7796 4.90314 37.7503 4.90314 36.677V30.607" stroke="black" stroke-width="4" stroke-linecap="round" stroke-linejoin="round"/>
<path d="M20.387 6.32684V18.4669C20.387 20.7027 16.487 22.5136 11.6773 22.5136C6.86765 22.5136 2.96765 20.7027 2.96765 18.4669V6.32684" stroke="black" stroke-width="4" stroke-linecap="round" stroke-linejoin="round"/>
<path d="M20.387 12.3969C20.387 14.6327 16.487 16.4436 11.6773 16.4436C6.86765 16.4436 2.96765 14.6327 2.96765 12.3969" stroke="black" stroke-width="4" stroke-linecap="round" stroke-linejoin="round"/>
<path d="M20.387 6.32684C20.387 8.56264 16.487 10.3735 11.6773 10.3735C6.86765 10.3735 2.96765 8.56264 2.96765 6.32684C2.96765 4.09105 6.86765 2.28015 11.6773 2.28015C16.487 2.28015 20.387 4.09105 20.387 6.32684Z" stroke="black" stroke-width="4" stroke-linecap="round" stroke-linejoin="round"/>
</svg>
