<svg width="32" height="32" viewBox="0 0 32 32" fill="none" xmlns="http://www.w3.org/2000/svg">
<path d="M16 0C11.6505 0 11.1084 0.0210026 9.40618 0.0930116C7.69696 0.177022 6.54082 0.442055 5.52069 0.838105C4.45302 1.24118 3.4861 1.87225 2.68734 2.68734C1.86998 3.48423 1.23855 4.45169 0.838105 5.52069C0.442055 6.54082 0.177022 7.69696 0.0930116 9.40618C0.016002 11.1094 0 11.6505 0 16C0 20.3495 0.0210026 20.8916 0.0930116 22.5938C0.177022 24.298 0.442055 25.4592 0.838105 26.4793C1.24118 27.547 1.87225 28.5139 2.68734 29.3127C3.48423 30.13 4.45169 30.7614 5.52069 31.1619C6.54082 31.5529 7.70196 31.823 9.40618 31.907C11.1094 31.984 11.6505 32 16 32C20.3495 32 20.8916 31.979 22.5938 31.907C24.298 31.823 25.4592 31.5519 26.4793 31.1619C27.547 30.7588 28.5139 30.1278 29.3127 29.3127C30.1311 28.5166 30.7627 27.5489 31.1619 26.4793C31.5529 25.4592 31.823 24.298 31.907 22.5938C31.984 20.8906 32 20.3495 32 16C32 11.6505 31.979 11.1084 31.907 9.40618C31.823 7.70196 31.5519 6.53482 31.1619 5.52069C30.7588 4.45302 30.1278 3.4861 29.3127 2.68734C28.5166 1.86892 27.5489 1.23733 26.4793 0.838105C25.4592 0.442055 24.298 0.177022 22.5938 0.0930116C20.8906 0.016002 20.3495 0 16 0ZM16 2.88036C20.2715 2.88036 20.7816 2.90136 22.4698 2.97337C24.027 3.04638 24.8751 3.30641 25.4382 3.52644C26.1343 3.7834 26.7643 4.19237 27.2824 4.72359C27.8127 5.23948 28.2202 5.86808 28.4746 6.56282C28.6946 7.12589 28.9546 7.974 29.0276 9.53119C29.0996 11.2194 29.1206 11.7305 29.1206 16.001C29.1206 20.2715 29.0996 20.7826 29.0216 22.4708C28.9376 24.028 28.6776 24.8761 28.4586 25.4392C28.1555 26.1903 27.8175 26.7153 27.2594 27.2834C26.7396 27.8113 26.1099 28.2183 25.4152 28.4756C24.8591 28.6956 23.999 28.9556 22.4358 29.0286C20.7386 29.1006 20.2385 29.1216 15.956 29.1216C11.6735 29.1216 11.1744 29.1006 9.47518 29.0226C7.91799 28.9386 7.05888 28.6786 6.49581 28.4596C5.73572 28.1565 5.21465 27.8185 4.65658 27.2604C4.09351 26.6973 3.73547 26.1613 3.45943 25.4162C3.2354 24.8601 2.97937 24 2.89636 22.4368C2.83935 20.7596 2.81235 20.2395 2.81235 15.977C2.81235 11.7165 2.83935 11.1954 2.89636 9.49719C2.97937 7.93399 3.2354 7.07588 3.45943 6.51782C3.73547 5.75672 4.09451 5.23665 4.65658 4.67358C5.21365 4.11651 5.73572 3.75647 6.49581 3.47443C7.05888 3.25541 7.89699 2.99537 9.46018 2.91736C11.1574 2.85636 11.6575 2.83435 15.934 2.83435L16 2.88036ZM16 7.78797C14.9212 7.78758 13.8529 7.99977 12.8562 8.41243C11.8594 8.82508 10.9537 9.43011 10.1909 10.1929C9.42811 10.9557 8.82308 11.8614 8.41043 12.8582C7.99777 13.8549 7.78558 14.9232 7.78597 16.002C7.78558 17.0808 7.99777 18.1491 8.41043 19.1458C8.82308 20.1426 9.42811 21.0483 10.1909 21.8111C10.9537 22.5739 11.8594 23.1789 12.8562 23.5916C13.8529 24.0042 14.9212 24.2164 16 24.216C17.0788 24.2164 18.1471 24.0042 19.1438 23.5916C20.1406 23.1789 21.0463 22.5739 21.8091 21.8111C22.5719 21.0483 23.1769 20.1426 23.5896 19.1458C24.0022 18.1491 24.2144 17.0808 24.214 16.002C24.2144 14.9232 24.0022 13.8549 23.5896 12.8582C23.1769 11.8614 22.5719 10.9557 21.8091 10.1929C21.0463 9.43011 20.1406 8.82508 19.1438 8.41243C18.1471 7.99977 17.0788 7.78758 16 7.78797ZM16 21.3357C13.0516 21.3357 10.6663 18.9504 10.6663 16.002C10.6663 13.0536 13.0516 10.6683 16 10.6683C18.9484 10.6683 21.3337 13.0536 21.3337 16.002C21.3337 18.9504 18.9484 21.3357 16 21.3357ZM26.4653 7.45993C26.4648 7.96966 26.2619 8.45833 25.9013 8.81858C25.5407 9.17882 25.0518 9.38117 24.5421 9.38117C24.29 9.38117 24.0405 9.33153 23.8076 9.23508C23.5748 9.13863 23.3632 8.99726 23.185 8.81904C23.0067 8.64082 22.8654 8.42925 22.7689 8.19639C22.6725 7.96354 22.6228 7.71397 22.6228 7.46193C22.6228 7.20989 22.6725 6.96032 22.7689 6.72747C22.8654 6.49462 23.0067 6.28304 23.185 6.10483C23.3632 5.92661 23.5748 5.78524 23.8076 5.68879C24.0405 5.59234 24.29 5.54269 24.5421 5.54269C25.5992 5.54269 26.4653 6.4028 26.4653 7.45993Z" fill="white"/>
</svg>
