<svg width="55" height="57" viewBox="0 0 55 57" fill="none" xmlns="http://www.w3.org/2000/svg">
<circle cx="29.9311" cy="28.0804" r="21.9943" fill="white" stroke="black" stroke-width="3"/>
<circle cx="17.3793" cy="18.1034" r="16.3793" fill="white" stroke="black" stroke-width="2"/>
<path d="M53.1716 42.9507L53.1716 42.9507L53.1808 42.9444C53.8128 42.5094 54.0217 41.6571 53.6058 40.9811L53.5954 40.9642L53.5844 40.9478L51.3437 37.6103C50.9012 36.9354 50.0994 36.8251 49.5466 36.9836L49.5208 36.991L49.4954 36.9998L47.1538 37.8096C46.7951 37.5985 46.423 37.4094 46.0309 37.2432L45.7028 35.248L45.7028 35.248L45.7012 35.2386C45.555 34.4001 44.7906 34 44.1549 34H39.6659C38.9983 34 38.2752 34.4271 38.1337 35.2386L38.1337 35.2386L38.1321 35.248L37.8038 37.2441C37.4102 37.4119 37.0365 37.6028 36.6827 37.8102L34.3395 36.9998L34.3395 36.9997L34.3299 36.9965C33.7114 36.7896 32.9158 36.9628 32.4913 37.6103L30.2505 40.9478L30.2455 40.9552L30.2407 40.9627C30.0374 41.2776 29.95 41.6679 30.0387 42.0605C30.1262 42.4474 30.366 42.7558 30.6691 42.9546L32.5152 44.1951C32.5016 44.3456 32.4936 44.4999 32.4936 44.6552C32.4936 44.8046 32.4989 44.9568 32.5098 45.1094L30.6493 46.3596L30.6492 46.3596L30.6401 46.3659C30.0081 46.8009 29.7991 47.6533 30.2151 48.3292L30.2255 48.3461L30.2365 48.3626L32.4772 51.7C32.9196 52.3749 33.7215 52.4853 34.2743 52.3268L34.3001 52.3194L34.3255 52.3106L36.667 51.5007C37.0257 51.7119 37.3979 51.9009 37.7899 52.0671L38.1181 54.0623L38.1234 54.0946L38.1308 54.1264C38.3057 54.8788 38.9826 55.3103 39.6659 55.3103H44.1549C44.7637 55.3103 45.5729 54.9243 45.6917 54.0446L46.0171 52.0662C46.4106 51.8985 46.7843 51.7075 47.1382 51.5002L49.4814 52.3106L49.4813 52.3106L49.4909 52.3138C50.1094 52.5208 50.905 52.3475 51.3296 51.7001L53.5703 48.3626L53.5753 48.3551L53.5802 48.3476C53.7835 48.0328 53.8709 47.6425 53.7821 47.2498C53.695 46.8641 53.4564 46.5565 53.1546 46.3576L51.3126 45.105C51.322 44.9587 51.3273 44.8087 51.3273 44.6552C51.3273 44.5023 51.322 44.3508 51.3114 44.2007L53.1716 42.9507ZM41.9104 47.2759C40.0016 47.2759 38.702 45.9584 38.702 44.6552C38.702 43.3519 40.0016 42.0345 41.9104 42.0345C43.8192 42.0345 45.1189 43.3519 45.1189 44.6552C45.1189 45.9584 43.8192 47.2759 41.9104 47.2759Z" fill="#050505" stroke="white" stroke-width="2"/>
<path d="M9.63997 15.24C10.1093 15.24 10.5413 15.3467 10.936 15.56C11.336 15.768 11.656 16.088 11.896 16.52C12.1413 16.952 12.264 17.4853 12.264 18.12C12.264 18.7547 12.1413 19.288 11.896 19.72C11.656 20.152 11.336 20.4747 10.936 20.688C10.5413 20.896 10.1093 21 9.63997 21H5.47997V15.24H9.63997ZM8.83997 19.32C9.1173 19.32 9.34664 19.3013 9.52797 19.264C9.7093 19.2213 9.86397 19.1147 9.99197 18.944C10.12 18.768 10.184 18.4933 10.184 18.12C10.184 17.7467 10.12 17.4747 9.99197 17.304C9.86397 17.128 9.7093 17.0213 9.52797 16.984C9.34664 16.9413 9.1173 16.92 8.83997 16.92H7.47997V19.32H8.83997ZM18.3459 17.28V15.24H20.3459V21H18.3459V18.96H15.0659V21H13.0659V15.24H15.0659V17.28H18.3459ZM27.0041 19.048V15.24H29.0041V21H26.0441L23.3081 17.192V21H21.3081V15.24H24.2681L27.0041 19.048Z" fill="black"/>
</svg>
