<svg width="31" height="31" viewBox="0 0 31 31" fill="none" xmlns="http://www.w3.org/2000/svg">
<path d="M15.5 0C6.937 0 0 6.938 0 15.5C0 24.062 6.938 31 15.5 31C24.063 31 31 24.062 31 15.5C31 6.938 24.062 0 15.5 0ZM23.113 10.619L20.569 22.607C20.381 23.457 19.875 23.663 19.169 23.263L15.294 20.407L13.425 22.207C13.219 22.413 13.044 22.588 12.644 22.588L12.919 18.644L20.1 12.156C20.413 11.881 20.031 11.725 19.618 12L10.743 17.587L6.918 16.393C6.087 16.131 6.068 15.562 7.093 15.162L22.037 9.399C22.731 9.149 23.337 9.568 23.112 10.618L23.113 10.619Z" fill="white"/>
</svg>
