<svg width="28" height="32" viewBox="0 0 28 32" fill="none" xmlns="http://www.w3.org/2000/svg">
<path d="M14.708 0.027C16.453 0 18.188 0.016 19.921 0C20.026 2.041 20.76 4.12 22.254 5.563C23.745 7.042 25.854 7.719 27.906 7.948V13.317C25.983 13.254 24.051 12.854 22.306 12.026C21.546 11.682 20.838 11.239 20.145 10.786C20.136 14.682 20.161 18.573 20.12 22.453C20.016 24.317 19.401 26.172 18.317 27.708C16.573 30.265 13.546 31.932 10.437 31.984C8.53003 32.093 6.62503 31.573 5.00003 30.615C2.30703 29.027 0.412026 26.12 0.136026 23C0.10126 22.3392 0.0959218 21.6772 0.120026 21.016C0.360026 18.479 1.61503 16.052 3.56303 14.401C5.77103 12.478 8.86403 11.562 11.76 12.104C11.787 14.079 11.708 16.052 11.708 18.027C10.385 17.599 8.83903 17.719 7.68303 18.522C6.83727 19.0792 6.19813 19.8989 5.86403 20.855C5.58803 21.531 5.66703 22.282 5.68303 23C6.00003 25.188 8.10403 27.027 10.35 26.828C11.839 26.812 13.266 25.948 14.042 24.683C14.293 24.24 14.574 23.787 14.589 23.266C14.72 20.881 14.668 18.506 14.684 16.121C14.695 10.746 14.668 5.386 14.709 0.028L14.708 0.027Z" fill="#FEFEFE"/>
</svg>
