<svg width="39" height="32" viewBox="0 0 39 32" fill="none" xmlns="http://www.w3.org/2000/svg">
<path d="M34.9912 7.97497C35.016 8.32495 35.016 8.67501 35.016 9.025C35.016 19.6999 26.9735 32 12.2742 32C7.74557 32 3.53873 30.6749 0 28.375C0.643426 28.45 1.26202 28.475 1.9302 28.475C5.66683 28.475 9.10661 27.2 11.8535 25.025C8.33948 24.95 5.39467 22.625 4.38005 19.425C4.87502 19.4999 5.36991 19.55 5.88963 19.55C6.60725 19.55 7.32494 19.4499 7.99305 19.275C4.33062 18.5249 1.5837 15.275 1.5837 11.35V11.25C2.64774 11.85 3.88516 12.225 5.19662 12.275C3.04369 10.8249 1.63321 8.34996 1.63321 5.54994C1.63321 4.04997 2.02907 2.67497 2.72201 1.47496C6.65669 6.37496 12.5711 9.57491 19.203 9.92496C19.0793 9.32496 19.005 8.70002 19.005 8.07501C19.005 3.62496 22.5685 0 26.9981 0C29.2995 0 31.3781 0.974998 32.8382 2.55C34.6446 2.20002 36.3769 1.52498 37.9112 0.600004C37.3172 2.47505 36.0552 4.05005 34.3972 5.04998C36.0057 4.87506 37.5648 4.42496 39 3.80003C37.9113 5.39996 36.5502 6.8249 34.9912 7.97497Z" fill="white"/>
</svg>
