<svg width="24" height="25" viewBox="0 0 24 25" fill="none" xmlns="http://www.w3.org/2000/svg">
<path d="M4.07259 0C2.99261 0.000399773 1.95698 0.393085 1.19332 1.09173C0.429652 1.79038 0.000436975 2.73783 0 3.72587V21.2741C0.000436975 22.2622 0.429652 23.2096 1.19332 23.9083C1.95698 24.6069 2.99261 24.9996 4.07259 25H21.9348V20.0337H23.2759V0.0015222L4.07259 0ZM19.2198 22.5111H4.13305C3.78763 22.5184 3.45149 22.4084 3.18959 22.2022C2.92768 21.9961 2.75861 21.7084 2.71506 21.3948C2.70764 21.3516 2.70579 21.3077 2.70957 21.2641C2.70978 21.1009 2.74526 20.9393 2.81397 20.7886C2.88268 20.638 2.98326 20.5013 3.10993 20.3863C3.2366 20.2714 3.38686 20.1804 3.55207 20.1188C3.71728 20.0572 3.89418 20.026 4.07259 20.0272H19.2198V22.5111ZM20.5608 17.5483H4.07259C3.60995 17.5494 3.15089 17.6225 2.71506 17.7645V3.72587C2.71579 3.39669 2.85904 3.08119 3.11347 2.84842C3.3679 2.61565 3.71278 2.48459 4.07259 2.48393H20.5608V17.5483Z" fill="black"/>
<path d="M16.447 6.265H6.82886V8.72881H16.447V6.265Z" fill="black"/>
</svg>
